<mxfile host="app.diagrams.net" modified="2020-11-22T14:54:24.462Z" agent="5.0 (Windows NT 10.0; WOW64) AppleWebKit/537.36 (KHTML, like Gecko) Chrome/78.0.3904.108 Safari/537.36" etag="amQZ40ui9LU96Hc_aZHU" version="13.10.0" type="github">
  <diagram id="weefddJ1McfloGW7aNsF" name="第 1 页">
    <mxGraphModel dx="3792" dy="1109" grid="1" gridSize="10" guides="1" tooltips="1" connect="1" arrows="1" fold="1" page="1" pageScale="1" pageWidth="850" pageHeight="1100" math="0" shadow="0">
      <root>
        <mxCell id="0" />
        <mxCell id="1" parent="0" />
        <mxCell id="LG3s5phopf-C8XnJRW-e-3" value="" style="edgeStyle=orthogonalEdgeStyle;rounded=0;orthogonalLoop=1;jettySize=auto;html=1;" parent="1" source="LG3s5phopf-C8XnJRW-e-1" target="LG3s5phopf-C8XnJRW-e-2" edge="1">
          <mxGeometry relative="1" as="geometry" />
        </mxCell>
        <mxCell id="HQqmTsa8VdBWckZdtYE4-2" value="" style="edgeStyle=orthogonalEdgeStyle;rounded=0;orthogonalLoop=1;jettySize=auto;html=1;" edge="1" parent="1" source="LG3s5phopf-C8XnJRW-e-1" target="HQqmTsa8VdBWckZdtYE4-1">
          <mxGeometry relative="1" as="geometry" />
        </mxCell>
        <mxCell id="LG3s5phopf-C8XnJRW-e-1" value="" style="rounded=0;whiteSpace=wrap;html=1;" parent="1" vertex="1">
          <mxGeometry x="-520" y="310" width="120" height="60" as="geometry" />
        </mxCell>
        <mxCell id="LG3s5phopf-C8XnJRW-e-2" value="" style="rounded=0;whiteSpace=wrap;html=1;" parent="1" vertex="1">
          <mxGeometry x="-320" y="310" width="120" height="60" as="geometry" />
        </mxCell>
        <mxCell id="HQqmTsa8VdBWckZdtYE4-1" value="" style="ellipse;whiteSpace=wrap;html=1;rounded=0;" vertex="1" parent="1">
          <mxGeometry x="-520" y="160" width="120" height="80" as="geometry" />
        </mxCell>
      </root>
    </mxGraphModel>
  </diagram>
</mxfile>
